<?xml version="1.0" encoding="utf-8"?>
<!-- Generator: Adobe Illustrator 18.1.1, SVG Export Plug-In . SVG Version: 6.00 Build 0)  -->
<svg version="1.1" id="Layer_1" xmlns="http://www.w3.org/2000/svg" xmlns:xlink="http://www.w3.org/1999/xlink" x="0px" y="0px"
	 viewBox="0 0 639.2 250.6" enable-background="new 0 0 639.2 250.6" xml:space="preserve">
<g>
	<path fill="#004990" d="M367.1,111.9l-13,36.4c-2,5.4-7.9,22.3-18.9,22.3c-2.2,0-5-0.8-5.7-3.6c-0.2-0.7-0.2-1.8,0.8-1.6
		c1,0.2,2.7,0.4,4.1,0.4c6,0,8.8-3.1,10.3-5.1c2.3-3.2,3.8-8.1,3.6-12.9c-0.1-3.9-1.5-8-3-12.8l-5.3-14.9c-1-3.2-2.6-6.6-4.5-7.8
		l8.2-1l9.6,28.4c0,0,4.3-11.4,6.3-18.8c0.7-2.4,1-4.3,0.8-6.2c-0.1-1.3-0.5-2.1-1.1-2.8L367.1,111.9L367.1,111.9z"/>
	<path fill="#004990" d="M608.9,111.9l0,2.7l-6,0c1.5,1.4,2.3,3.8,2.2,5.9c-0.2,5.9-3.5,8.9-10,11.7c-2.6,1.1-5.1,2.1-7.3,3.3
		c-1.3,0.7-2,1.4-2,2.5c0,0.8,0.6,1.4,2,2c3.4,1.5,10.1,2.1,15.8,4.3c5.1,1.9,7.4,5,7.4,9.5c0,8.7-15.3,16.7-22.9,16.7
		c-7.9,0-13.7-3.2-13.7-10.2c0-8.9,12.3-14.4,12.3-14.4c-2.3-0.5-7.8-1.5-7.6-6.2c0.3-4.8,9.9-7.2,9.9-7.2c-0.5-0.1-1.6-0.3-2.2-0.6
		c-4.8-1.9-7-5.6-6.9-9.9c0.1-8.1,6.8-11.3,13.2-11.2c1.8,0,3.2,0.3,4.6,0.7c1.2,0.3,2.6,0.4,3.3,0.4L608.9,111.9L608.9,111.9z
		 M598.4,121.9c0-4.6-2.1-8.9-6.3-8.9c-4.2,0-5.9,3.7-5.9,7.7c0,4.7,2.1,8.9,6.8,8.9C596.8,129.7,598.4,126,598.4,121.9L598.4,121.9
		z M592.1,165.8c6,0,12.1-3,12.1-9.8c0-5-4-7.2-7.9-8c-2.9-0.6-5.5-1.1-6.2-1.3c-1,0.3-9.6,4-9.6,10.5
		C580.6,163.2,587.2,165.8,592.1,165.8L592.1,165.8z"/>
	<path fill="#004990" d="M470.6,106.3h-0.4c-1.9-3.7-4.8-7.2-13-7.2c-12.5,0-17.3,10.3-17.3,21.6c0,12.5,6.3,22.2,19.3,22.2
		c6.9,0,11.4-3,13.7-5.5v0.5c0,3.6-5.6,11.1-18.1,11.1c-14.5,0-23.3-10.6-23.4-26.1c0-15.6,10-27.4,25.8-27.4
		c4.6,0,8.5,0.7,13.3,0.6L470.6,106.3L470.6,106.3z"/>
	<path fill="#004990" d="M552.9,125.1c-0.1,1.3-0.3,2.4-0.3,4.1c0,7.4,3.2,14.5,11.4,14.5c3.9,0,7.7-1.6,9.6-3.7v0.9
		c-0.3,4.3-4.9,8.1-11.9,8.1c-11.3,0-16.2-9.4-16.2-19c0-10.4,5.9-19.1,16.8-19.1c7.7,0,12.2,5.2,12.2,10.4c0,3.3-1.7,3.8-6.6,3.8
		H552.9L552.9,125.1z M561.4,122.7c3.9,0,6-0.2,6-3.2c0-3-2.2-6.1-6.1-6.1c-5,0-7.1,5-7.8,9.3H561.4L561.4,122.7z"/>
	<path fill="#004990" d="M617.6,125.1c-0.1,1.3-0.3,2.4-0.3,4.1c0,7.4,3.2,14.5,11.4,14.5c3.9,0,7.7-1.6,9.6-3.7v0.9
		c-0.3,4.3-4.9,8.1-11.9,8.1c-11.3,0-16.2-9.4-16.2-19c0-10.4,5.9-19.1,16.8-19.1c7.7,0,12.2,5.2,12.2,10.4c0,3.3-1.7,3.8-6.6,3.8
		H617.6L617.6,125.1z M626,122.7c3.9,0,6-0.2,6-3.2c0-3-2.2-6.1-6.1-6.1c-5,0-7.1,5-7.8,9.3H626L626,122.7z"/>
	<path fill="#004990" d="M316.2,149c-11,0-15.5-9-15.5-17.7c0-12.4,7-20.4,18.9-20.4c11,0,15.5,9,15.5,17.7
		C335.1,140.9,328.1,149,316.2,149L316.2,149z M318.8,146.1c7.5,0,9.4-7.5,9.4-14.1c0-9.3-2.8-18.2-11.2-18.2
		c-7.5,0-9.4,7.5-9.4,14.1C307.6,137.2,310.4,146.1,318.8,146.1L318.8,146.1z"/>
	<path fill="#004990" d="M442,227.4l0-7.6l0.4,0c1.8,4.1,4.9,6.4,9.8,6.4c4.5,0,7.3-2.4,7.3-6.7c0-4.9-4.2-6.7-8.1-9
		c-3.9-2.3-7.6-4.1-7.6-10c0-6.4,4.6-9.4,12.1-9.4c2.4,0,6,0.3,8.3,1l0,6l-0.3,0c-1.8-3.5-4.6-4.6-8.2-4.6c-3.1,0-5.9,1.6-6,4.9
		c-0.1,4.3,3.6,5.9,7.3,8c4.5,2.5,8.8,5.1,8.8,11.2c0,7.6-6.6,11.3-13.4,11.3C448.2,229.1,444.9,228.4,442,227.4L442,227.4z"/>
	<path fill="#004990" d="M494.7,197c0.9-1.2,4.4-5.8,10.6-5.8c6,0,9.8,3,9.8,10.4l0,17.8c0,3.3,0.2,6.6,1.6,8.6l-7.8,0v-21.8
		c0-5.1-0.5-10.7-6.9-10.7c-6.1,0-7.3,5.7-7.3,11.1l0,12.8c0,3.3,0.1,6.6,1.5,8.6h-9.2c1.4-2,1.5-5.3,1.5-8.6v-19c0-3.3-0.3-6.4-2-8
		l8.1-1.1V197L494.7,197z"/>
	<path fill="#004990" d="M381.9,144.6c4.8,0,7-3.7,7-8.9v-8.1l-4.2,2.2c-5.9,2.9-8.9,4.7-8.9,9.1
		C375.9,142.8,378.3,144.6,381.9,144.6L381.9,144.6z M388.9,143.4c-1.6,2.7-4.4,5.4-10,5.6c-5.5,0.2-10-2.7-10-8.8
		c0-7.5,9-10.4,14.4-12.8c4.7-2,5.5-2.6,5.5-7.1c0-4-1.4-7-6.1-7c-4,0-5.2,2.2-5.9,4.2c-0.6,1.8-1.3,3.5-3.8,3.5c-1.8,0-3-1.1-3-3
		c0-5.4,7.9-7.1,14-7.1c5.7,0,10.9,1.3,10.9,6.5l0,21.8c0,3.3,0.1,6.6,1.5,8.6h-7.2C389.1,146.8,388.9,144.5,388.9,143.4
		L388.9,143.4z"/>
	<path fill="#004990" d="M410.4,139.2c0,3.3,0.1,6.6,1.5,8.6h-9.2c1.4-2,1.5-5.3,1.5-8.6v-38c0-3.3-0.3-6.4-2-8l8.2-1.2L410.4,139.2
		L410.4,139.2z"/>
	<path fill="#004990" d="M314.2,195l-8.4,0l0,24.4c0,3.3,0.1,6.6,1.5,8.6h-9.2c1.4-2,1.5-5.3,1.5-8.6l0-24.4l-3.8,0v-2.9h3.8v-10.3
		c0.3-7.7,6.4-9.3,13-9.2c1.8,0,5.6,0.8,5.7,3.3c0,1.5-1.1,2.5-2.5,2.6c-2.5,0.1-4.1-3.5-6.5-3.5c-3.3,0-3.6,3.8-3.6,8.6v8.5h8.4
		V195L314.2,195z"/>
	<path fill="#004990" d="M429.1,196.3l-0.5-5l-7.8,1.1c2,1.6,2.4,4.7,2.4,8v19c0,3.3-0.1,6.6-1.5,8.6h9.2c-1.4-2-1.5-5.3-1.5-8.6
		l0-17.8c0-2.8,1-5.8,5.2-4.9c1.4,0.3,3.2,0.7,4.9,0.4c1.5-0.3,2.1-1.4,2.1-2.9c0-1.4-1.2-3-3.9-3
		C434.2,191.2,431.1,193.3,429.1,196.3L429.1,196.3z"/>
	<path fill="#004990" d="M407.6,223.6c0.1,2,0.2,3.6,0.4,4.4l7.1,0c-1.4-2-1.5-5.3-1.5-8.6l0-28.1l-8.2,1.1c1.7,1.6,2,4.7,2,8
		l0,11.9c0,7.9-1.8,12.2-7.2,12.6c-5.4,0.4-6.9-3.1-6.9-8.6l0-25l-8.2,1.1c1.7,1.6,2,4.7,2,8V218c0,6.6,2.9,11.2,10,11.2
		C402.7,229.2,406.5,225.4,407.6,223.6L407.6,223.6z"/>
	<path fill="#004990" d="M295,140.2l-13.7-18.9c6.8-2.5,11.5-7.2,11.5-14.5c0-6.6-5.6-10.5-14.6-10.5c-6.2,0-10.5,0.7-17.2,0.5
		c1.8,2.5,1.7,6.5,1.7,10.1v30.8c0,3.6,0,7.6-1.8,10.1h11.1c-1.8-2.5-1.8-6.5-1.8-10.1l0-14.6c3,0.3,3.9,1.2,5.9,4l11.9,16.5
		c1.8,2.6,3.3,4.1,6.7,4.1h7.2C299.9,146.2,297.3,143.4,295,140.2L295,140.2z M273.5,120.2c-1,0-2.1-0.1-3.2-0.2l0-20.4l3.5,0
		c7.1,0,11.3,0.9,11.3,8.9C285.1,116,281.3,120.2,273.5,120.2L273.5,120.2z"/>
	<path fill="#004990" d="M377.7,194.8c0-7,0-13.3,2.5-17.6l-9.1,0c2.4,4.3,2.5,10.6,2.5,17.6l0,21.9c0,0-25.5-36.1-27.1-38.3
		c-1-1.3-1.7-1.2-3.2-1.2h-8.3c2.4,2.4,2.6,6.7,2.6,10.6v22.7c0,7,0,13.3-2.5,17.6l9.1,0c-2.4-4.3-2.5-10.6-2.5-17.6l0-25.1
		l30.4,42.7h5.8c-0.1-2.4-0.1-4.5-0.1-7.1L377.7,194.8L377.7,194.8z"/>
	<path fill="#004990" d="M491.2,149c-11,0-15.5-9.2-15.5-17.9c0-12.4,7-20.3,18.9-20.3c11,0,15.5,9,15.5,17.7
		C510.1,141,503.1,149,491.2,149L491.2,149z M493.8,146.1c7.5,0,9.4-7.5,9.4-14.1c0-9.3-2.8-18.2-11.2-18.2c-7.5,0-9.4,7.5-9.4,14.1
		C482.6,137.3,485.4,146.1,493.8,146.1L493.8,146.1z"/>
	<path fill="#004990" d="M539,139.2c0,3.3,0.1,6.6,1.5,8.6h-9.2c1.4-2,1.5-5.3,1.5-8.6v-38c0-3.3-0.3-6.4-2-8l8.2-1.2L539,139.2
		L539,139.2z"/>
	<path fill="#004990" d="M523,139.2c0,3.3,0.1,6.6,1.5,8.6h-9.2c1.4-2,1.5-5.3,1.5-8.6v-38c0-3.3-0.3-6.4-2-8l8.2-1.2L523,139.2
		L523,139.2z"/>
	<path fill="#004990" d="M272.8,228.7c-11,0-15.5-9.2-15.5-17.9c0-12.4,6.9-20.3,18.9-20.3c11,0,15.5,9,15.5,17.7
		C291.7,220.6,284.8,228.7,272.8,228.7L272.8,228.7z M275.5,225.8c7.5,0,9.4-7.5,9.4-14.1c0-9.3-2.8-18.2-11.2-18.2
		c-7.5,0-9.4,7.5-9.4,14.1C264.2,216.9,267,225.8,275.5,225.8L275.5,225.8z"/>
	<path fill="#004990" d="M551.6,192.1l0,2.7l-6,0c1.5,1.4,2.3,3.8,2.2,5.9c-0.2,5.9-3.5,8.9-10,11.7c-2.6,1.1-5.1,2.1-7.3,3.3
		c-1.3,0.7-2,1.4-2,2.5c0,0.8,0.6,1.4,2,2c3.4,1.5,10.1,2.1,15.8,4.3c5.1,1.9,7.4,5,7.4,9.5c0,8.7-15.3,16.7-22.9,16.7
		c-7.9,0-13.7-3.2-13.7-10.2c0-8.9,12.3-14.4,12.3-14.4c-2.3-0.5-7.8-1.5-7.6-6.2c0.3-4.8,9.9-7.2,9.9-7.2c-0.5-0.1-1.6-0.3-2.2-0.6
		c-4.8-1.9-7-5.6-6.9-9.9c0.1-8.1,6.8-11.3,13.2-11.2c1.8,0,3.2,0.3,4.6,0.7c1.2,0.3,2.6,0.4,3.3,0.4L551.6,192.1L551.6,192.1z
		 M541.1,202.1c0-4.6-2.1-8.9-6.3-8.9c-4.2,0-5.9,3.8-5.9,7.7c0,4.7,2.1,8.9,6.8,8.9C539.5,209.9,541.1,206.2,541.1,202.1
		L541.1,202.1z M534.8,246c6,0,12.1-3,12.1-9.8c0-5-4-7.2-7.9-8c-2.9-0.6-5.5-1.1-6.1-1.3c-1,0.3-9.6,4-9.6,10.5
		C523.3,243.4,529.9,246,534.8,246L534.8,246z"/>
	<path fill="#DF134C" d="M136.5,226.9L80.8,119.8c-3.3-6.4-1.9-13.5,4.2-16.7c6.1-3.2,12.5-0.5,15.9,5.6l16.5,30.3
		c4.3,7.9,12.5,10.8,20.3,6.7c7.9-4.2,9.1-13,5.1-20.8c0,0-10.5-20.5-10.5-20.5l0.1-84.2c0-5.9,4.1-10.7,9.6-10.7
		c5.4,0,10,4.8,10,10.7l-0.1,89.1c0,1,0.8,1.8,1.7,1.8c0.9,0,1.7-0.8,1.7-1.8l0.1-98.6c0-5.9,4.2-10.7,9.7-10.7
		c5.4,0,10.1,4.8,10.1,10.7l-0.1,98.6c0,1,0.8,1.8,1.7,1.8c0.9,0,1.7-0.8,1.7-1.8l0.1-85.9c0-5.9,4.2-10.6,9.6-10.6
		c5.4,0,10,4.8,10,10.7l-0.1,85.8c0,1,0.8,1.8,1.7,1.8c0.9,0,1.7-0.8,1.7-1.8l0.1-69.6c0-5.9,4.3-10.7,9.7-10.7
		c5.4,0,10,4.8,10,10.7L220.9,227L136.5,226.9L136.5,226.9z"/>
	<path fill="#004990" d="M89,142.3c0,0-10.7-20.6-10.7-20.6c-4-7.8-2.8-16.7,5.4-21c7.7-4,15.8-0.5,20.1,7.1l16.5,30.2
		c3.5,6,9.8,8.5,15.9,5.3c6.1-3.2,7.3-10.4,4.1-16.5l-56-107.5L0.2,19.3L0,206.6c0,5.9,4.4,10.7,9.9,10.7c5.4,0,9.7-4.8,9.7-10.7
		l0.1-69.6c0-1,0.8-1.8,1.7-1.8c0.9,0,1.7,0.8,1.7,1.8L23,222.7c0,5.9,4.5,10.7,10,10.7c5.4,0,9.6-4.7,9.6-10.6l0.1-85.9
		c0-1,0.8-1.8,1.7-1.8c0.9,0,1.7,0.8,1.7,1.8L46,235.6c0,5.9,4.6,10.7,10.1,10.7c5.4,0,9.7-4.8,9.7-10.7l0.1-98.6
		c0-1,0.8-1.8,1.7-1.8c0.9,0,1.7,0.8,1.7,1.8L69.1,226c0,5.9,4.6,10.7,10,10.7c5.4,0,9.8-4.8,9.8-10.7L89,142.3L89,142.3z"/>
	<path fill="#004990" d="M478.9,219.4c0,3.3,0.1,6.6,1.5,8.6h-9.2c1.4-2,1.5-5.3,1.5-8.6v-19c0-3.3-0.3-6.4-2-8l8.2-1.1L478.9,219.4
		L478.9,219.4z"/>
	<path fill="#004990" d="M471.5,180.1c0-2.3,1.9-4.2,4.2-4.2c2.3,0,4.2,1.9,4.2,4.2c0,2.3-1.9,4.2-4.2,4.2
		C473.4,184.3,471.5,182.4,471.5,180.1L471.5,180.1z"/>
</g>
</svg>
